<svg width="96" height="96" viewBox="0 0 96 96" fill="none" xmlns="http://www.w3.org/2000/svg">
<path d="M42.2207 49.4668C44.3942 50.1786 45.5755 52.5063 44.859 54.6658L40.959 66.4214C40.2425 68.5809 37.8998 69.7545 35.7262 69.0427C33.5527 68.3309 32.3714 66.0032 33.0879 63.8437L36.9879 52.0881C37.7043 49.9285 40.0471 48.7549 42.2207 49.4668Z" fill="#FFB600"/>
<path fill-rule="evenodd" clip-rule="evenodd" d="M28.2377 22.3757C29.7407 12.4278 38.3789 4.80005 48.8102 4.80005C59.2416 4.80005 67.8798 12.4278 69.3828 22.3757H70.0858C79.0959 22.3757 86.4 29.6326 86.4 38.5846V74.9911C86.4 83.943 79.0959 91.2 70.0858 91.2H25.9142C16.9041 91.2 9.60001 83.943 9.60001 74.9911V38.5846C9.60001 29.6327 16.9041 22.3757 25.9142 22.3757H28.2377ZM57.2226 35.9143C56.1679 35.9143 55.1494 36.2463 54.1976 36.6979C52.5659 37.4722 50.739 37.9056 48.8102 37.9056C43.7425 37.9056 39.3782 34.9133 37.4096 30.6099H70.0858C74.5187 30.6099 78.1123 34.1803 78.1123 38.5846V74.9911C78.1123 79.3954 74.5187 82.9658 70.0858 82.9658H25.9142C21.4813 82.9658 17.8877 79.3954 17.8877 74.9911V38.5846C17.8877 34.1803 21.4813 30.6099 25.9142 30.6099H28.6545C30.9543 39.5389 39.1064 46.1399 48.8102 46.1399C53.0381 46.1399 56.9714 44.8868 60.2545 42.7342C63.7806 40.4221 61.4474 35.9143 57.2226 35.9143ZM36.6844 22.3757C38.0687 17.0047 42.9728 13.0343 48.8102 13.0343C54.6477 13.0343 59.5518 17.0047 60.9361 22.3757H36.6844Z" fill="#FFB600"/>
</svg>
